<svg xmlns="http://www.w3.org/2000/svg" viewBox="0 0 64 64">
  <rect width="64" height="64" rx="14" fill="#211b18"/>
  <g fill="none" stroke-linecap="round" stroke-linejoin="round">
    <circle cx="25" cy="35" r="17" stroke="#f5c982" stroke-width="5"/>
    <circle cx="25" cy="35" r="10" stroke="#fff4d6" stroke-width="2"/>
    <circle cx="41" cy="29" r="17" stroke="#f5c982" stroke-width="5"/>
    <circle cx="41" cy="29" r="10" stroke="#fff4d6" stroke-width="2"/>
    <path d="M25 18v6M25 46v6M8 35h6M36 35h6M13 23l4 4M33 43l4 4" stroke="#6f6257" stroke-width="2"/>
    <path d="M41 12v6M41 40v6M24 29h6M52 29h6M29 17l4 4M49 37l4 4" stroke="#6f6257" stroke-width="2"/>
    <path d="M23 14c3-5 8-5 11 0M34 11c3-5 8-5 11 0" stroke="#f5c982" stroke-width="3"/>
  </g>
</svg>
